<svg width="4738" height="950" viewBox="0 0 4738 950" fill="none" xmlns="http://www.w3.org/2000/svg">
<path d="M4595.04 695.374C4556.05 695.374 4523.34 686.882 4496.92 669.899C4470.5 652.287 4450.37 629.642 4436.53 601.966C4423.32 574.289 4416.72 544.726 4416.72 513.275C4416.72 475.535 4425.53 441.568 4443.14 411.375C4461.38 380.554 4485.91 356.337 4516.73 338.725C4547.55 320.483 4581.84 311.363 4619.58 311.363C4656.06 311.363 4684.05 320.483 4703.55 338.725C4723.68 356.966 4733.74 383.699 4733.74 418.924C4733.74 427.101 4732.8 433.705 4730.91 438.737C4729.65 443.141 4726.82 445.342 4722.42 445.342H4657.32C4659.83 407.601 4654.8 378.981 4642.22 359.482C4630.27 339.983 4612.03 330.233 4587.5 330.233C4556.68 330.233 4532.46 343.442 4514.85 369.861C4497.86 396.279 4489.37 431.818 4489.37 476.478C4489.37 512.332 4495.03 544.097 4506.35 571.773C4517.68 598.821 4534.35 619.893 4556.36 634.989C4578.38 650.085 4605.11 657.633 4636.56 657.633C4657.32 657.633 4674.3 654.803 4687.51 649.142C4701.35 643.48 4715.5 636.561 4729.97 628.384C4731.23 627.126 4732.8 628.07 4734.68 631.215C4737.2 633.731 4737.83 635.932 4736.57 637.819C4713.93 658.577 4690.97 673.358 4667.7 682.165C4644.42 690.971 4620.21 695.374 4595.04 695.374ZM4467.67 446.286L4466.73 432.133L4678.07 428.359V445.342L4467.67 446.286Z" fill="#C9B382"/>
<path d="M4108.05 696.315C4081.63 696.315 4057.1 689.081 4034.46 674.614C4012.44 659.518 3994.52 638.446 3980.68 611.398C3967.47 584.351 3960.86 552.271 3960.86 515.16C3960.86 478.048 3967.47 446.598 3980.68 420.808C3994.52 394.39 4012.13 373.003 4033.51 356.649C4055.53 340.295 4079.12 328.029 4104.28 319.852C4129.44 311.675 4153.34 307.586 4175.98 307.586C4198.63 307.586 4219.39 311.046 4238.26 317.965C4257.76 324.884 4275.68 334.005 4292.04 345.327L4276.94 413.26C4262.47 387.471 4245.8 367.028 4226.93 351.932C4208.06 336.206 4183.85 328.344 4154.28 328.344C4117.8 328.344 4088.24 341.238 4065.59 367.028C4043.58 392.817 4032.57 432.445 4032.57 485.911C4032.57 521.764 4037.6 552.586 4047.67 578.375C4058.36 604.165 4072.51 623.979 4090.12 637.817C4107.74 651.655 4127.55 658.574 4149.57 658.574C4177.24 658.574 4201.46 651.026 4222.22 635.93C4242.97 620.834 4262.79 602.592 4281.66 581.206L4290.15 588.754C4276.94 603.85 4261.53 619.89 4243.92 636.873C4226.31 653.228 4206.18 667.38 4183.53 679.332C4161.52 690.654 4136.36 696.315 4108.05 696.315ZM4325.06 9.43514V578.375C4325.06 600.391 4327.58 616.431 4332.61 626.495C4337.64 635.93 4345.82 640.647 4357.14 640.647C4362.8 640.647 4369.41 640.018 4376.95 638.76C4385.13 636.873 4393.94 633.414 4403.37 628.382C4405.89 627.124 4407.78 628.382 4409.03 632.156C4410.92 635.301 4410.92 637.502 4409.03 638.76L4296.75 692.541C4294.24 693.799 4292.04 694.428 4290.15 694.428C4282.6 694.428 4275.68 686.88 4269.39 671.783C4263.73 656.687 4260.9 635.301 4260.9 607.624V123.601C4260.9 100.956 4258.7 84.6019 4254.3 74.5378C4250.52 64.4736 4242.97 59.4415 4231.65 59.4415C4225.99 59.4415 4220.02 60.6995 4213.73 63.2155C4207.44 65.1026 4199.57 68.2477 4190.14 72.6508C4187.62 73.2798 4185.42 71.7072 4183.53 67.9331C4182.27 64.1591 4182.59 61.9575 4184.48 61.3285L4309.96 0.943501C4311.22 0.314499 4312.79 0 4314.68 0C4316.57 0 4318.77 0.943496 4321.29 2.8305C4323.8 4.71755 4325.06 6.91909 4325.06 9.43514Z" fill="#C9B382"/>
<path d="M3719.46 696.317C3681.1 696.317 3647.76 687.196 3619.45 668.955C3591.78 650.713 3570.39 626.496 3555.29 596.304C3540.2 565.482 3532.65 532.459 3532.65 497.235C3532.65 464.526 3538.62 436.221 3550.58 412.318C3563.16 388.416 3579.51 368.916 3599.64 353.82C3619.77 338.095 3641.78 326.458 3665.68 318.91C3689.59 311.362 3713.17 307.588 3736.45 307.588C3775.45 307.588 3808.78 317.023 3836.46 335.893C3864.14 354.764 3885.21 378.981 3899.68 408.544C3914.77 438.108 3922.32 469.244 3922.32 501.952C3922.32 541.58 3912.89 576.176 3894.02 605.739C3875.15 634.674 3850.3 657.003 3819.48 672.729C3789.29 688.454 3755.95 696.317 3719.46 696.317ZM3746.83 678.39C3777.65 678.39 3801.55 666.439 3818.53 642.536C3836.15 618.005 3844.95 580.893 3844.95 531.201C3844.95 489.057 3838.66 452.889 3826.08 422.697C3813.5 391.875 3796.52 368.287 3775.13 351.933C3754.38 334.95 3730.79 326.458 3704.37 326.458C3673.55 326.458 3649.64 338.409 3632.66 362.312C3616.31 385.585 3608.13 420.181 3608.13 466.099C3608.13 505.726 3614.11 541.894 3626.06 574.603C3638.01 606.683 3654.36 632.157 3675.12 651.028C3695.88 669.269 3719.78 678.39 3746.83 678.39Z" fill="#C9B382"/>
<path d="M3274.1 83.9722C3298.01 83.9722 3320.02 85.2302 3340.15 87.7462C3360.91 89.6333 3380.09 93.0928 3397.7 98.1249C3415.95 103.157 3433.24 109.762 3449.6 117.939C3454.63 119.826 3457.46 122.027 3458.09 124.543C3459.35 126.43 3460.29 131.148 3460.92 138.696L3473.19 257.579C3473.19 258.837 3471.3 260.095 3467.53 261.353C3464.38 261.982 3462.49 261.039 3461.86 258.523C3446.14 206.315 3422.24 167.002 3390.16 140.583C3358.08 113.536 3317.19 100.012 3267.5 100.012C3217.18 100.012 3173.15 111.649 3135.41 134.922C3097.67 158.195 3068.1 191.219 3046.72 233.991C3025.33 276.135 3014.64 326.141 3014.64 384.01C3014.64 426.783 3021.24 466.096 3034.45 501.95C3047.66 537.803 3065.9 569.254 3089.18 596.302C3113.08 622.72 3140.44 643.163 3171.26 657.63C3202.71 672.097 3236.36 679.331 3272.22 679.331C3322.54 679.331 3363.11 666.751 3393.93 641.59C3425.38 616.43 3450.54 578.06 3469.41 526.481C3470.67 524.594 3472.87 523.965 3476.02 524.594C3479.16 525.223 3480.73 526.481 3480.73 528.368L3470.36 635.929C3469.73 643.477 3468.47 648.195 3466.58 650.082C3465.32 651.969 3462.49 654.171 3458.09 656.687C3426.01 671.154 3395.19 681.218 3365.63 686.879C3336.69 693.169 3305.55 696.314 3272.22 696.314C3205.54 696.314 3146.1 683.419 3093.89 657.63C3042.31 631.212 3001.74 595.043 2972.18 549.126C2942.62 502.579 2927.83 448.798 2927.83 387.784C2927.83 342.496 2936.33 301.295 2953.31 264.184C2970.92 227.072 2995.45 194.993 3026.9 167.945C3058.35 140.898 3094.84 120.14 3136.35 105.673C3178.49 91.2058 3224.41 83.9722 3274.1 83.9722Z" fill="#C9B382"/>
<path d="M2518.57 684.051C2516.68 684.051 2515.74 682.164 2515.74 678.39C2515.74 674.616 2516.68 672.729 2518.57 672.729C2541.22 672.729 2556 668.64 2562.92 660.463C2570.46 651.657 2574.24 634.044 2574.24 607.626V459.494C2574.24 423.64 2567.63 397.222 2554.42 380.239C2541.22 362.626 2520.14 353.82 2491.21 353.82C2469.19 353.82 2446.86 360.425 2424.22 373.634C2402.2 386.214 2383.33 403.827 2367.61 426.471L2363.83 415.149C2389.62 379.924 2416.04 353.191 2443.09 334.95C2470.77 316.709 2499.7 307.588 2529.89 307.588C2564.49 307.588 2591.22 317.652 2610.09 337.78C2629.59 357.909 2639.34 386.529 2639.34 423.64V607.626C2639.34 634.044 2642.8 651.657 2649.72 660.463C2657.27 668.64 2672.68 672.729 2695.95 672.729C2697.84 672.729 2698.78 674.616 2698.78 678.39C2698.78 682.164 2697.84 684.051 2695.95 684.051C2684 684.051 2670.48 683.736 2655.38 683.107C2640.28 682.478 2624.24 682.164 2607.26 682.164C2590.28 682.164 2573.92 682.478 2558.2 683.107C2543.1 683.736 2529.89 684.051 2518.57 684.051ZM2264.77 684.051C2262.88 684.051 2261.93 682.164 2261.93 678.39C2261.93 674.616 2262.88 672.729 2264.77 672.729C2287.41 672.729 2302.19 668.64 2309.11 660.463C2316.66 651.657 2320.43 634.044 2320.43 607.626V423.64C2320.43 403.512 2317.92 388.73 2312.88 379.295C2308.48 369.86 2300.62 365.142 2289.3 365.142C2283.01 365.142 2275.77 366.4 2267.6 368.916C2259.42 370.803 2249.98 373.949 2239.29 378.352C2236.77 379.61 2234.89 378.666 2233.63 375.521C2232.37 371.747 2232.69 369.231 2234.57 367.973L2350.63 312.305C2353.14 311.676 2355.03 311.362 2356.29 311.362C2361.95 311.362 2368.24 318.281 2375.16 332.119C2382.08 345.958 2385.54 365.771 2385.54 391.561V607.626C2385.54 634.044 2388.99 651.657 2395.91 660.463C2403.46 668.64 2418.87 672.729 2442.15 672.729C2444.03 672.729 2444.98 674.616 2444.98 678.39C2444.98 682.164 2444.03 684.051 2442.15 684.051C2430.2 684.051 2416.67 683.736 2401.58 683.107C2386.48 682.478 2370.44 682.164 2353.46 682.164C2336.47 682.164 2320.12 682.478 2304.39 683.107C2289.3 683.736 2276.09 684.051 2264.77 684.051Z" fill="#C9B382"/>
<path d="M2043.08 684.047C2041.19 684.047 2040.25 682.16 2040.25 678.386C2040.25 674.611 2041.19 672.724 2043.08 672.724C2065.72 672.724 2080.82 668.636 2088.37 660.459C2095.91 651.653 2099.69 634.04 2099.69 607.622V434.015C2099.69 411.999 2097.49 395.96 2093.08 385.895C2088.68 375.831 2080.82 370.799 2069.5 370.799C2064.46 370.799 2058.49 371.743 2051.57 373.63C2045.28 375.517 2037.73 378.662 2028.93 383.065C2026.41 383.694 2024.21 382.436 2022.32 379.291C2021.06 375.517 2021.69 373.001 2024.21 371.743L2152.53 312.301C2154.41 311.672 2155.67 311.358 2156.3 311.358C2158.19 311.358 2160.07 312.301 2161.96 314.188C2164.48 316.075 2165.74 318.277 2165.74 320.793C2165.74 326.454 2165.42 338.72 2164.79 357.59C2164.16 376.46 2163.85 401.306 2163.85 432.128V607.622C2163.85 634.04 2167.31 651.653 2174.23 660.459C2181.78 668.636 2197.19 672.724 2220.46 672.724C2222.35 672.724 2223.29 674.611 2223.29 678.386C2223.29 682.16 2222.35 684.047 2220.46 684.047C2209.14 684.047 2195.61 683.732 2179.89 683.103C2164.79 682.474 2148.75 682.16 2131.77 682.16C2114.79 682.16 2098.75 682.474 2083.65 683.103C2068.55 683.732 2055.03 684.047 2043.08 684.047ZM2126.11 205.684C2111.64 205.684 2100 201.91 2091.2 194.362C2083.02 186.185 2078.93 174.862 2078.93 160.395C2078.93 146.557 2083.02 135.864 2091.2 128.316C2100 120.767 2111.64 116.993 2126.11 116.993C2139.95 116.993 2150.64 120.767 2158.19 128.316C2166.36 135.864 2170.45 146.557 2170.45 160.395C2170.45 190.588 2155.67 205.684 2126.11 205.684Z" fill="#C9B382"/>
<path d="M1582.98 684.049C1581.72 684.049 1581.09 682.162 1581.09 678.388C1581.09 674.614 1581.72 672.727 1582.98 672.727C1606.25 672.727 1621.35 668.638 1628.27 660.461C1635.82 651.655 1639.59 634.043 1639.59 607.624V122.657C1639.59 100.642 1637.39 84.6019 1632.99 74.5378C1629.21 64.4736 1621.98 59.4415 1611.29 59.4415C1601.85 59.4415 1588.01 63.53 1569.77 71.7072C1567.88 72.9652 1566 71.7072 1564.11 67.9331C1562.22 64.1591 1562.22 61.9575 1564.11 61.3285L1688.65 0.943501C1690.54 0.314499 1692.11 0 1693.37 0C1695.26 0 1697.46 0.943496 1699.98 2.8305C1702.49 4.71755 1703.75 6.91909 1703.75 9.43514V607.624C1703.75 634.043 1707.52 651.655 1715.07 660.461C1722.62 668.638 1738.03 672.727 1761.31 672.727C1763.19 672.727 1764.14 674.614 1764.14 678.388C1764.14 682.162 1763.19 684.049 1761.31 684.049C1749.35 684.049 1735.83 683.735 1720.73 683.106C1705.64 682.477 1689.6 682.162 1672.61 682.162C1655.63 682.162 1639.28 682.477 1623.55 683.106C1608.46 683.735 1594.93 684.049 1582.98 684.049ZM1820.75 684.049C1818.86 684.049 1817.92 682.162 1817.92 678.388C1817.92 674.614 1818.86 672.727 1820.75 672.727C1841.5 672.727 1854.71 669.582 1860.37 663.292C1866.04 656.373 1864.46 646.623 1855.66 634.043L1737.72 476.476L1787.72 438.735L1913.21 607.624C1930.82 631.527 1948.44 648.51 1966.05 658.574C1984.29 668.009 2002.53 672.727 2020.77 672.727C2022.03 672.727 2022.66 674.614 2022.66 678.388C2022.66 682.162 2022.03 684.049 2020.77 684.049C2008.82 684.049 1995.3 683.735 1980.2 683.106C1965.1 682.477 1948.75 682.162 1931.14 682.162C1907.24 682.162 1886.48 682.477 1868.87 683.106C1851.25 683.735 1835.21 684.049 1820.75 684.049ZM1682.05 531.2L1677.33 519.877L1818.86 399.107C1840.88 380.866 1850 365.141 1846.22 351.932C1842.45 338.093 1826.41 331.174 1798.1 331.174C1796.84 331.174 1796.22 329.287 1796.22 325.513C1796.22 321.739 1796.84 319.852 1798.1 319.852C1813.83 319.852 1829.55 320.166 1845.28 320.795C1861 321.424 1882.39 321.739 1909.44 321.739C1933.97 321.739 1953.47 321.424 1967.94 320.795C1982.4 320.166 1996.24 319.852 2009.45 319.852C2010.71 319.852 2011.34 321.739 2011.34 325.513C2011.34 329.287 2010.71 331.174 2009.45 331.174C1994.35 331.174 1977.37 333.69 1958.5 338.722C1939.63 343.125 1919.82 350.673 1899.06 361.367C1878.93 372.06 1858.8 385.898 1838.67 402.881L1682.05 531.2Z" fill="#C9B382"/>
<path d="M1261.76 200.025C1261.76 225.185 1268.05 246.886 1280.63 265.127C1293.21 283.369 1309.56 299.723 1329.69 314.19C1349.82 328.028 1371.21 341.867 1393.85 355.705C1417.13 369.543 1439.46 384.325 1460.84 400.05C1482.86 415.775 1500.78 434.331 1514.62 455.718C1529.09 476.475 1536.32 501.95 1536.32 532.142C1536.32 562.964 1528.15 590.64 1511.79 615.172C1496.07 639.703 1473.42 659.202 1443.86 673.67C1414.92 688.137 1380.01 695.371 1339.13 695.371C1322.77 695.371 1306.11 693.798 1289.12 690.653C1272.77 688.137 1257.04 684.363 1241.95 679.331C1226.85 674.299 1213.01 668.009 1200.43 660.461C1197.92 658.574 1195.71 656.372 1193.83 653.856C1192.57 651.34 1191.94 647.566 1191.94 642.534L1182.5 507.611C1181.88 504.466 1183.13 502.893 1186.28 502.893C1190.05 502.264 1192.25 503.208 1192.88 505.724C1198.54 525.223 1206.09 545.037 1215.53 565.165C1224.96 585.294 1236.28 603.85 1249.49 620.833C1262.7 637.187 1278.43 650.711 1296.67 661.404C1315.54 672.097 1337.24 677.444 1361.77 677.444C1378.76 677.444 1395.11 674.299 1410.84 668.009C1427.19 661.719 1440.4 651.34 1450.46 636.873C1460.53 621.776 1465.56 601.019 1465.56 574.601C1465.56 544.408 1458.95 518.933 1445.75 498.176C1432.54 477.418 1415.55 459.492 1394.8 444.395C1374.04 429.299 1352.02 414.832 1328.75 400.994C1306.73 387.155 1285.35 372.688 1264.59 357.592C1244.46 342.496 1228.11 325.198 1215.53 305.698C1202.95 285.57 1196.66 261.353 1196.66 233.048C1196.66 199.081 1205.46 171.09 1223.08 149.075C1241.32 127.059 1264.28 110.705 1291.95 100.012C1320.26 89.3188 1349.19 83.9722 1378.76 83.9722C1398.26 83.9722 1418.07 85.8592 1438.2 89.6333C1458.33 93.4074 1476.57 98.7539 1492.92 105.673C1498.58 108.189 1502.36 111.02 1504.24 114.165C1506.13 116.681 1507.07 119.511 1507.07 122.656L1511.79 240.596C1511.79 242.483 1510.22 243.741 1507.07 244.37C1503.93 244.999 1501.73 244.055 1500.47 241.539C1498.58 230.846 1494.49 217.637 1488.2 201.912C1481.91 185.557 1473.42 169.832 1462.73 154.736C1452.04 139.011 1438.2 126.116 1421.21 116.052C1404.86 105.359 1384.73 100.012 1360.83 100.012C1338.81 100.012 1320.57 104.73 1306.11 114.165C1291.64 122.971 1280.63 134.922 1273.08 150.018C1265.53 164.486 1261.76 181.154 1261.76 200.025Z" fill="#C9B382"/>
<path d="M1145.64 319.851C1147.53 319.851 1148.47 321.738 1148.47 325.512C1148.47 329.286 1147.53 331.173 1145.64 331.173C1128.03 331.173 1112.93 337.777 1100.35 350.987C1088.4 364.196 1077.39 384.639 1067.33 412.315L955.051 710.466C932.407 770.851 910.706 818.342 889.949 852.937C869.191 888.162 847.805 913.008 825.79 927.475C803.774 941.942 779.557 949.176 753.139 949.176C738.671 949.176 726.72 945.716 717.285 938.797C707.221 932.507 702.189 922.757 702.189 909.548C702.189 898.226 705.648 889.734 712.568 884.073C719.487 879.041 727.349 876.525 736.155 876.525C748.107 876.525 757.227 878.412 763.517 882.186C769.807 885.96 776.098 889.734 782.388 893.508C788.678 897.282 796.855 899.169 806.919 899.169C822.015 899.169 836.483 892.25 850.321 878.412C864.159 864.574 878.941 840.986 894.666 807.648C910.391 774.94 928.633 729.966 949.39 672.726L948.447 707.636L795.597 398.162C781.759 370.486 770.751 352.559 762.574 344.382C755.026 335.576 745.591 331.173 734.268 331.173C732.381 331.173 731.438 329.286 731.438 325.512C731.438 321.738 732.381 319.851 734.268 319.851C744.962 319.851 756.284 320.165 768.235 320.794C780.186 321.423 791.508 321.738 802.202 321.738C823.588 321.738 842.144 321.423 857.869 320.794C874.223 320.165 889.005 319.851 902.214 319.851C903.472 319.851 904.101 321.738 904.101 325.512C904.101 329.286 903.472 331.173 902.214 331.173C881.457 331.173 866.361 333.689 856.925 338.721C848.119 343.753 847.176 353.503 854.095 367.97L981.47 627.437L955.051 671.782L1044.69 414.202C1054.75 385.268 1054.75 364.196 1044.69 350.987C1035.25 337.777 1015.12 331.173 984.3 331.173C983.042 331.173 982.413 329.286 982.413 325.512C982.413 321.738 983.042 319.851 984.3 319.851C999.396 319.851 1013.55 320.165 1026.76 320.794C1040.6 321.423 1058.21 321.738 1079.6 321.738C1093.43 321.738 1104.76 321.423 1113.56 320.794C1123 320.165 1133.69 319.851 1145.64 319.851Z" fill="#C9B382"/>
<path d="M81.1424 576.488L90.5776 116.052L114.165 117.939L104.73 576.488C104.101 609.197 109.762 633.414 121.714 649.139C134.294 664.864 155.051 672.727 183.986 672.727C185.873 672.727 186.816 674.614 186.816 678.388C186.816 682.162 185.873 684.049 183.986 684.049C170.147 684.049 155.995 683.734 141.527 683.105C127.06 682.476 110.706 682.162 92.4646 682.162C75.4813 682.162 59.4415 682.476 44.3453 683.105C29.249 683.734 15.0963 684.049 1.88703 684.049C0.62901 684.049 0 682.162 0 678.388C0 674.614 0.62901 672.727 1.88703 672.727C28.3055 672.727 47.8048 664.864 60.385 649.139C73.5943 633.414 80.5134 609.197 81.1424 576.488ZM741.604 672.727C742.862 672.727 743.491 674.614 743.491 678.388C743.491 682.162 742.862 684.049 741.604 684.049C725.878 684.049 708.266 683.734 688.767 683.105C669.268 682.476 648.51 682.162 626.495 682.162C605.737 682.162 586.238 682.476 567.997 683.105C549.755 683.734 533.401 684.049 518.934 684.049C517.047 684.049 516.103 682.162 516.103 678.388C516.103 674.614 517.047 672.727 518.934 672.727C549.755 672.727 569.569 668.638 578.375 660.461C587.182 652.284 590.641 634.672 588.754 607.624L569.884 163.228L606.681 110.391L362.31 677.444C361.681 679.96 359.165 681.218 354.762 681.218C350.988 681.218 348.472 679.96 347.214 677.444L100.956 172.663C78.9409 128.003 48.1193 105.673 8.49165 105.673C7.23363 105.673 6.60461 103.786 6.60461 100.012C6.60461 96.2383 7.23363 94.3513 8.49165 94.3513C19.8138 94.3513 31.4505 94.6658 43.4017 95.2948C55.982 95.9238 66.6751 96.2383 75.4813 96.2383C87.4325 96.2383 98.1257 95.9238 107.561 95.2948C117.625 94.6658 125.173 94.3513 130.205 94.3513C139.011 94.3513 145.93 97.4964 150.963 103.786C155.995 109.448 163.543 122.657 173.607 143.414L387.785 578.375L352.875 638.76L580.262 117.939C583.408 110.391 587.182 104.73 591.585 100.956C596.617 96.5528 602.278 94.3513 608.568 94.3513C612.971 94.3513 618.318 94.6658 624.608 95.2948C631.527 95.9238 639.389 96.2383 648.196 96.2383C665.808 96.2383 680.59 95.9238 692.541 95.2948C704.492 94.6658 716.758 94.3513 729.338 94.3513C730.596 94.3513 731.225 96.2383 731.225 100.012C731.225 103.786 730.596 105.673 729.338 105.673C699.145 105.673 677.13 110.706 663.292 120.77C649.454 130.205 642.849 147.817 643.478 173.607L663.292 607.624C664.55 625.865 667.066 639.704 670.84 649.139C674.614 658.574 681.848 664.864 692.541 668.009C703.234 671.154 719.588 672.727 741.604 672.727Z" fill="#C9B382"/>
</svg>
