<svg preserveAspectRatio="none" width="100%" height="100%" overflow="visible" style="display: block;" viewBox="0 0 31.9922 31.9922" fill="none" xmlns="http://www.w3.org/2000/svg">
<g id="Container">
<path d="M0 15.9961C0 7.1617 7.1617 0 15.9961 0V0C24.8305 0 31.9922 7.1617 31.9922 15.9961V15.9961C31.9922 24.8305 24.8305 31.9922 15.9961 31.9922V31.9922C7.1617 31.9922 0 24.8305 0 15.9961V15.9961Z" fill="var(--fill-0, #F7F6F4)"/>
<path id="Vector" fill-rule="evenodd" clip-rule="evenodd" d="M9.15566 13.4557L9.70858 13.1201C9.83475 13.0449 9.99617 13.0858 10.0695 13.2152C10.1428 13.3445 10.1029 13.5099 9.97669 13.5851L8.79848 14.303C8.72983 14.3448 8.64448 14.3515 8.5684 14.322C8.49233 14.2925 8.43574 14.2298 8.41162 14.1489L8.00991 12.8053C7.96723 12.6617 8.04516 12.5105 8.18525 12.4668C8.32534 12.423 8.47284 12.5029 8.51552 12.6465L8.68436 13.2085C9.8431 10.3871 12.5485 8.52532 15.5718 8.52532C19.6901 8.52532 23.041 11.9599 23.041 16.184C23.041 20.4051 19.6901 23.8427 15.5718 23.8427C15.4271 23.8427 15.3084 23.721 15.3084 23.5726C15.3084 23.4243 15.4271 23.3026 15.5718 23.3026C19.4006 23.3026 22.5139 20.1114 22.5139 16.187C22.5139 12.2626 19.4006 9.07139 15.5718 9.07139C12.7496 9.06759 10.2243 10.8125 9.15556 13.4561L9.15566 13.4557ZM10.7309 17.5846L10.0917 17.4553C9.84218 17.404 9.6622 17.1805 9.6622 16.9199V15.4451C9.6622 15.1845 9.84311 14.9611 10.0917 14.9097L10.7309 14.7804L11.1818 13.6631L10.8182 13.1106C10.6781 12.8938 10.704 12.6047 10.885 12.4221L11.9036 11.378C12.0817 11.1955 12.3647 11.166 12.5753 11.3096L13.1143 11.6823L14.2044 11.2202L14.3305 10.565C14.3806 10.3092 14.5986 10.1247 14.8528 10.1247H16.2918C16.5459 10.1247 16.764 10.3102 16.8141 10.565L16.9402 11.2202L18.0303 11.6823L18.5693 11.3096C18.7808 11.166 19.0629 11.1926 19.241 11.378L20.2596 12.4221C20.4378 12.6047 20.4665 12.8947 20.3264 13.1106L19.9628 13.6631L20.4136 14.7804L21.0528 14.9097C21.3024 14.9611 21.4824 15.1845 21.4824 15.4451V16.9199C21.4824 17.1805 21.3015 17.404 21.0528 17.4553L20.4136 17.5846L19.9628 18.7019L20.3264 19.2544C20.4665 19.4712 20.4405 19.7603 20.2596 19.9429L19.2401 20.9879C19.0619 21.1705 18.779 21.2 18.5684 21.0564L18.0294 20.6837L16.9393 21.1458L16.8131 21.801C16.763 22.0568 16.545 22.2412 16.2908 22.2412H14.8519C14.5977 22.2412 14.3797 22.0558 14.3296 21.801L14.2034 21.1458L13.1134 20.6837L12.5744 21.0564C12.3628 21.2 12.0808 21.1734 11.9027 20.9879L10.884 19.9438C10.7059 19.7612 10.6771 19.4712 10.8172 19.2554L11.1809 18.7029L10.7309 17.5846ZM10.1938 16.9247L10.9703 17.0807C11.0557 17.0978 11.1299 17.1586 11.1623 17.2414L11.7227 18.6268C11.7561 18.7096 11.7468 18.8066 11.6986 18.8798L11.257 19.554C11.2542 19.5568 11.2542 19.5568 11.257 19.5587L12.2756 20.6009C12.2784 20.6038 12.2784 20.6038 12.2803 20.6009L12.938 20.1483C12.9835 20.1188 13.0326 20.1017 13.0855 20.1017C13.1189 20.1017 13.1542 20.1093 13.1876 20.1207L14.5393 20.6951C14.62 20.7293 14.6794 20.8044 14.6961 20.8919L14.8482 21.6878C14.8482 21.6907 14.8482 21.6907 14.8529 21.6907H16.2918C16.2945 21.6907 16.2945 21.6907 16.2964 21.6878L16.4485 20.8919C16.4652 20.8044 16.5246 20.7283 16.6053 20.6951L17.957 20.1207C18.0378 20.0865 18.1324 20.096 18.2038 20.1454L18.8616 20.5981C18.8644 20.6009 18.8644 20.6009 18.8662 20.5981L19.8849 19.554C19.8877 19.5511 19.8877 19.5511 19.8849 19.5492L19.4433 18.875C19.3932 18.7999 19.3839 18.7048 19.4191 18.6221L19.9795 17.2366C20.0129 17.1539 20.0862 17.093 20.1715 17.0759L20.948 16.9199C20.9508 16.9199 20.9508 16.9199 20.9508 16.9152V15.4403C20.9508 15.4374 20.9508 15.4374 20.948 15.4355L20.1715 15.2796C20.0862 15.2625 20.012 15.2016 19.9795 15.1189L19.4191 13.7334C19.3858 13.6507 19.395 13.5537 19.4433 13.4805L19.8849 12.8063C19.8877 12.8034 19.8877 12.8034 19.8849 12.8015L18.8662 11.7574C18.8634 11.7545 18.8634 11.7545 18.8616 11.7574L18.2038 12.21C18.1305 12.2614 18.0378 12.2709 17.957 12.2348L16.6053 11.6604C16.5246 11.6262 16.4653 11.551 16.4485 11.4636L16.2964 10.6677C16.2964 10.6648 16.2964 10.6648 16.2918 10.6648H14.8529C14.8501 10.6648 14.8501 10.6648 14.8482 10.6677L14.6961 11.4636C14.6794 11.551 14.62 11.6271 14.5393 11.6604L13.1876 12.2348C13.1069 12.269 13.0122 12.2595 12.9408 12.21L12.2812 11.7622C12.2784 11.7593 12.2784 11.7593 12.2765 11.7622L11.2579 12.8063C11.2551 12.8091 11.2551 12.8091 11.2579 12.811L11.6995 13.4852C11.7496 13.5603 11.7589 13.6554 11.7236 13.7382L11.1633 15.1237C11.1299 15.2064 11.0566 15.2672 10.9712 15.2844L10.1947 15.4403C10.1919 15.4403 10.1919 15.4403 10.1919 15.4451V16.9199C10.1919 16.9247 10.1919 16.9247 10.1938 16.9247ZM12.0112 16.183C12.0112 14.1699 13.6097 12.5344 15.5708 12.5344C17.5348 12.5344 19.1305 14.1728 19.1305 16.183C19.1305 18.1961 17.532 19.8316 15.5708 19.8316C13.6087 19.8316 12.0112 18.196 12.0112 16.183ZM17.625 18.4661C17.4088 17.4848 16.5683 16.7839 15.571 16.7839C14.5737 16.7839 13.7304 17.4829 13.517 18.4661C14.0588 18.9777 14.7806 19.2915 15.571 19.2915C16.3642 19.2915 17.086 18.9796 17.625 18.4661ZM15.571 16.2362C16.0488 16.2362 16.4356 15.8397 16.4356 15.35C16.4356 14.8603 16.0488 14.4637 15.571 14.4637C15.0932 14.4637 14.7064 14.8603 14.7064 15.35C14.7064 15.8397 15.0932 16.2362 15.571 16.2362ZM12.5381 16.183C12.5381 16.8572 12.7496 17.48 13.1059 17.9916C13.2599 17.5732 13.5141 17.1957 13.8518 16.899C14.0893 16.6898 14.3574 16.5291 14.645 16.4169C14.3574 16.1563 14.1774 15.7741 14.1774 15.3509C14.1774 14.5645 14.8018 13.9217 15.5718 13.9217C16.339 13.9217 16.9634 14.5617 16.9634 15.3509C16.9634 15.7741 16.7825 16.1563 16.4958 16.4169C16.7834 16.5291 17.0543 16.6898 17.289 16.899C17.6239 17.1957 17.88 17.5732 18.0349 17.9916C18.3911 17.4829 18.6026 16.8572 18.6026 16.183C18.6026 14.4694 17.2417 13.0743 15.5698 13.0743C13.8989 13.0734 12.5379 14.4684 12.5379 16.183H12.5381ZM25.4298 16.57L24.5847 15.465C24.5346 15.3994 24.4585 15.3623 24.3778 15.3623C24.2971 15.3623 24.221 15.4013 24.1709 15.465L23.3257 16.57C23.2357 16.6869 23.2543 16.8572 23.3712 16.9494C23.4853 17.0416 23.6514 17.0226 23.7413 16.9028L24.131 16.3969C24.0159 21.1344 20.2206 24.9531 15.5708 24.9531C13.977 24.9531 12.4239 24.5024 11.0768 23.6485C10.9535 23.5705 10.7893 23.6095 10.7132 23.736C10.6371 23.8624 10.6752 24.0307 10.7985 24.1087C12.2309 25.0168 13.8787 25.4961 15.5699 25.4961C17.9969 25.4961 20.2771 24.5271 21.9945 22.7699C23.6542 21.0687 24.593 18.8265 24.6523 16.433L25.016 16.9056C25.106 17.0226 25.272 17.0445 25.3862 16.9522C25.5003 16.8571 25.5198 16.686 25.4298 16.57ZM9.82541 21.528C9.80871 21.3797 9.67604 21.2751 9.53317 21.2922C9.38844 21.3093 9.28638 21.4453 9.30309 21.5936L9.37916 22.2336C7.87347 20.6094 7.01809 18.4338 7.01809 16.1838C7.01809 11.3465 10.8561 7.41259 15.5754 7.41259C15.7201 7.41259 15.8389 7.29087 15.8389 7.14252C15.8389 6.99417 15.7202 6.87245 15.5754 6.87245C13.1484 6.87245 10.8682 7.84144 9.15083 9.59867C7.43174 11.3579 6.48633 13.6971 6.48633 16.1828C6.48633 17.4951 6.74796 18.7637 7.26098 19.9512C7.68401 20.9297 8.26106 21.816 8.97822 22.59L8.39653 22.5197C8.25181 22.5025 8.12099 22.6071 8.10244 22.7555C8.08574 22.9038 8.18779 23.0379 8.33252 23.0569L9.6935 23.2252C9.70278 23.2281 9.71484 23.2281 9.72412 23.2281C9.79277 23.2281 9.86143 23.1986 9.91152 23.1482C9.96811 23.0902 9.99687 23.0075 9.9876 22.9238L9.82541 21.528ZM17.9412 8.60896C18.0294 8.72782 18.1926 8.75254 18.3114 8.66221C18.4274 8.57187 18.4515 8.40451 18.3634 8.28279L17.983 7.76454C20.8403 8.62608 23.0586 10.9387 23.8369 13.9113C23.8675 14.033 23.9742 14.1109 24.091 14.1109C24.1152 14.1109 24.1365 14.1081 24.1597 14.1014C24.2998 14.0624 24.3833 13.9141 24.3471 13.7705C23.5233 10.6229 21.1789 8.17153 18.1581 7.2511L18.6953 7.01528C18.8279 6.95727 18.8919 6.79847 18.8326 6.65964C18.776 6.52366 18.621 6.45805 18.4856 6.51891L17.2248 7.07138C17.1515 7.10276 17.094 7.16838 17.0727 7.2492C17.0513 7.32908 17.068 7.41466 17.1153 7.48028L17.9412 8.60896Z" fill="var(--fill-0, #C9B382)"/>
</g>
</svg>
