<svg preserveAspectRatio="none" width="100%" height="100%" overflow="visible" style="display: block;" viewBox="0 0 31.9922 31.9922" fill="none" xmlns="http://www.w3.org/2000/svg">
<g id="Container">
<path d="M0 15.9961C0 7.1617 7.1617 0 15.9961 0V0C24.8305 0 31.9922 7.1617 31.9922 15.9961V15.9961C31.9922 24.8305 24.8305 31.9922 15.9961 31.9922V31.9922C7.1617 31.9922 0 24.8305 0 15.9961V15.9961Z" fill="var(--fill-0, #F7F6F4)"/>
<path id="Vector" fill-rule="evenodd" clip-rule="evenodd" d="M8.59281 18.7527H10.5444C10.6936 18.753 10.8367 18.8134 10.9422 18.9208C11.0477 19.0282 11.1071 19.1737 11.1074 19.3255V23.2985C11.1072 23.4504 11.0478 23.596 10.9423 23.7034C10.8367 23.8108 10.6937 23.8712 10.5444 23.8715H8.59281C8.44343 23.8713 8.30021 23.8109 8.19453 23.7035C8.08885 23.5961 8.02933 23.4505 8.02901 23.2985V19.3255C8.02938 19.1736 8.08893 19.028 8.1946 18.9206C8.30028 18.8133 8.44347 18.7529 8.59281 18.7527ZM7.20382 24.496C7.17558 24.4969 7.14745 24.492 7.1211 24.4816C7.09476 24.4712 7.07073 24.4555 7.05044 24.4355C7.03016 24.4155 7.01403 24.3916 7.00302 24.3651C6.992 24.3386 6.98633 24.3102 6.98633 24.2814C6.98633 24.2527 6.992 24.2242 7.00302 24.1977C7.01403 24.1713 7.03016 24.1473 7.05044 24.1273C7.07073 24.1073 7.09476 24.0916 7.1211 24.0812C7.14745 24.0709 7.17558 24.066 7.20382 24.0668H24.7818C24.8366 24.0686 24.8886 24.0919 24.9268 24.132C24.965 24.172 24.9863 24.2256 24.9863 24.2814C24.9863 24.3372 24.965 24.3908 24.9268 24.4309C24.8886 24.4709 24.8366 24.4943 24.7818 24.496H7.20382ZM21.6971 10.0004L19.1697 12.8949C19.3168 13.0779 19.4144 13.2968 19.4531 13.5299C19.4918 13.7631 19.4701 14.0024 19.3901 14.2244C19.3102 14.4464 19.1748 14.6434 18.9973 14.796C18.8198 14.9486 18.6063 15.0515 18.3778 15.0946C18.1494 15.1377 17.9138 15.1195 17.6943 15.0418C17.4748 14.9641 17.279 14.8296 17.1262 14.6515C16.9734 14.4734 16.8688 14.2579 16.8227 14.0261C16.7766 13.7944 16.7907 13.5545 16.8635 13.3299L14.9285 12.3125C14.7245 12.5944 14.4215 12.7855 14.0826 12.8462C13.7437 12.9068 13.3949 12.8323 13.1086 12.6381L10.6194 15.3796C10.8277 15.6487 10.9286 15.9877 10.9021 16.3292C10.8756 16.6706 10.7236 16.9893 10.4764 17.2218C10.2292 17.4543 9.90497 17.5834 9.56834 17.5835C9.2317 17.5836 8.90741 17.4545 8.66012 17.2221C8.41283 16.9897 8.26072 16.6711 8.23411 16.3296C8.20749 15.9882 8.30834 15.6491 8.51653 15.38C8.72473 15.1108 9.02498 14.9314 9.35742 14.8775C9.68985 14.8236 10.0301 14.8991 10.3102 15.089L12.7998 12.3463C12.6568 12.1613 12.5634 11.9417 12.5287 11.709C12.494 11.4762 12.5193 11.2384 12.6019 11.0185C12.6846 10.7987 12.8218 10.6044 13.0003 10.4547C13.1788 10.3049 13.3924 10.2048 13.6203 10.1641C13.8481 10.1234 14.0825 10.1436 14.3004 10.2225C14.5184 10.3015 14.7125 10.4366 14.8638 10.6146C15.0151 10.7927 15.1184 11.0076 15.1637 11.2384C15.209 11.4693 15.1946 11.7081 15.1221 11.9316L17.0571 12.949C17.2586 12.6711 17.5563 12.4814 17.89 12.4183C18.2237 12.3552 18.5685 12.4234 18.8547 12.6092L21.3823 9.71549C21.1696 9.45087 21.0627 9.11442 21.083 8.77321C21.1032 8.43199 21.2491 8.11108 21.4916 7.87443C21.734 7.63778 22.0552 7.50278 22.3911 7.49634C22.7271 7.48989 23.053 7.61248 23.3041 7.83966C23.5551 8.06685 23.7128 8.38194 23.7457 8.72213C23.7786 9.06233 23.6842 9.40263 23.4815 9.67522C23.2788 9.94781 22.9825 10.1327 22.6518 10.1929C22.3211 10.2532 21.9802 10.1844 21.6971 10.0004ZM23.0654 8.19324C22.9155 8.04066 22.7182 7.9457 22.5072 7.92453C22.2961 7.90337 22.0844 7.95731 21.9081 8.07717C21.7317 8.19703 21.6017 8.37539 21.5401 8.58185C21.4786 8.78832 21.4893 9.01012 21.5704 9.20946C21.6516 9.40879 21.7982 9.57333 21.9852 9.67504C22.1722 9.77674 22.3881 9.80932 22.5961 9.76723C22.8041 9.72513 22.9913 9.61095 23.1258 9.44416C23.2603 9.27737 23.3339 9.06828 23.3338 8.85252C23.334 8.73006 23.3104 8.60877 23.2643 8.49563C23.2183 8.38249 23.1507 8.27972 23.0654 8.19324ZM18.7825 13.0984C18.6326 12.9456 18.4352 12.8505 18.224 12.8293C18.0129 12.808 17.801 12.8619 17.6246 12.9817C17.4481 13.1016 17.318 13.28 17.2563 13.4865C17.1946 13.6931 17.2053 13.915 17.2864 14.1145C17.3676 14.3139 17.5142 14.4786 17.7013 14.5804C17.8884 14.6822 18.1044 14.7148 18.3125 14.6727C18.5206 14.6307 18.7079 14.5164 18.8425 14.3496C18.9771 14.1827 19.0507 13.9735 19.0507 13.7577C19.0508 13.6352 19.0272 13.5139 18.9812 13.4008C18.9352 13.2877 18.8676 13.1849 18.7825 13.0984ZM14.4991 10.8454C14.3492 10.6929 14.152 10.598 13.941 10.5768C13.73 10.5557 13.5183 10.6096 13.342 10.7295C13.1658 10.8493 13.0358 11.0276 12.9742 11.234C12.9127 11.4404 12.9234 11.6622 13.0045 11.8615C13.0856 12.0608 13.2322 12.2253 13.4192 12.3269C13.6061 12.4286 13.822 12.4612 14.0299 12.4191C14.2379 12.3771 14.425 12.2629 14.5595 12.0962C14.694 11.9294 14.7675 11.7204 14.7675 11.5047C14.7677 11.3822 14.7441 11.261 14.698 11.1478C14.652 11.0347 14.5844 10.9319 14.4991 10.8454ZM10.216 15.5627C10.0661 15.4102 9.86877 15.3152 9.65773 15.294C9.4467 15.2729 9.23498 15.3268 9.05865 15.4466C8.88232 15.5665 8.75229 15.7448 8.6907 15.9513C8.62912 16.1577 8.63981 16.3795 8.72093 16.5789C8.80206 16.7782 8.94861 16.9427 9.13561 17.0445C9.32262 17.1462 9.53851 17.1788 9.74649 17.1368C9.95448 17.0947 10.1417 16.9806 10.2762 16.8138C10.4108 16.647 10.4844 16.438 10.4844 16.2222C10.4845 16.0997 10.4609 15.9784 10.4148 15.8653C10.3688 15.7521 10.3012 15.6493 10.216 15.5627ZM21.4419 11.4603C21.2926 11.4606 21.1495 11.521 21.0439 11.6283C20.9384 11.7357 20.8789 11.8813 20.8787 12.0331V23.2985C20.8789 23.4504 20.9383 23.596 21.0439 23.7034C21.1494 23.8109 21.2926 23.8713 21.4419 23.8715H23.3926C23.542 23.8713 23.6852 23.8109 23.7909 23.7035C23.8966 23.5961 23.9561 23.4505 23.9564 23.2985V12.0331C23.9561 11.8812 23.8965 11.7356 23.7908 11.6282C23.6852 11.5209 23.542 11.4605 23.3926 11.4603H21.4419ZM23.3926 11.8895H21.4419C21.4045 11.8898 21.3687 11.905 21.3422 11.9318C21.3158 11.9587 21.3008 11.9951 21.3005 12.0331V23.2985C21.3007 23.3366 21.3157 23.373 21.3422 23.3999C21.3686 23.4269 21.4044 23.4421 21.4419 23.4424H23.3926C23.4301 23.4421 23.4659 23.4269 23.4923 23.4C23.5188 23.373 23.5337 23.3366 23.5338 23.2985V12.0331C23.5336 11.9951 23.5187 11.9587 23.4923 11.9318C23.4658 11.9049 23.43 11.8897 23.3926 11.8895ZM17.1585 16.0977C17.0093 16.098 16.8662 16.1584 16.7607 16.2658C16.6552 16.3731 16.5958 16.5187 16.5955 16.6705V23.2985C16.5957 23.4504 16.6551 23.596 16.7606 23.7034C16.8662 23.8108 17.0092 23.8712 17.1585 23.8715H19.1101C19.2593 23.871 19.4022 23.8105 19.5076 23.7031C19.613 23.5957 19.6724 23.4503 19.6727 23.2985V16.6705C19.6723 16.5187 19.6129 16.3732 19.5073 16.2658C19.4018 16.1585 19.2587 16.098 19.1095 16.0977H17.1585ZM19.1101 16.5268H17.1585C17.1211 16.527 17.0853 16.5423 17.0589 16.5691C17.0325 16.596 17.0175 16.6325 17.0173 16.6705V23.2985C17.0175 23.3366 17.0324 23.373 17.0588 23.4C17.0853 23.4269 17.1211 23.4421 17.1585 23.4424H19.1101C19.1475 23.4421 19.1833 23.4269 19.2098 23.4C19.2362 23.373 19.2511 23.3366 19.2513 23.2985V16.6705C19.2511 16.6325 19.2361 16.596 19.2097 16.5691C19.1833 16.5423 19.1475 16.527 19.1101 16.5268ZM12.8754 13.9007C12.7262 13.9011 12.5832 13.9616 12.4778 14.0689C12.3724 14.1763 12.313 14.3217 12.3128 14.4735V23.2985C12.313 23.4504 12.3724 23.596 12.4779 23.7034C12.5834 23.8108 12.7265 23.8712 12.8758 23.8715H14.8273C14.9765 23.8711 15.1195 23.8106 15.225 23.7032C15.3304 23.5958 15.3897 23.4503 15.3899 23.2985V14.4735C15.3897 14.3217 15.3303 14.1761 15.2247 14.0688C15.1192 13.9614 14.9762 13.901 14.8269 13.9007H12.8754ZM14.8269 14.3298H12.8754C12.838 14.3301 12.8022 14.3453 12.7757 14.3722C12.7493 14.3991 12.7344 14.4355 12.7342 14.4735V23.2985C12.7343 23.3366 12.7492 23.373 12.7757 23.4C12.8021 23.4269 12.8379 23.4421 12.8754 23.4424H14.8269C14.8644 23.4421 14.9002 23.4269 14.9266 23.4C14.9531 23.373 14.968 23.3366 14.9681 23.2985V14.4735C14.9679 14.4355 14.953 14.3991 14.9265 14.3722C14.9001 14.3453 14.8643 14.3301 14.8269 14.3298ZM10.5438 19.1819H8.59281C8.55545 19.1822 8.51972 19.1974 8.49331 19.2243C8.4669 19.2512 8.45192 19.2875 8.45161 19.3255V23.2985C8.45176 23.3366 8.46669 23.373 8.49313 23.4C8.51957 23.4269 8.55539 23.4421 8.59281 23.4424H10.5444C10.5818 23.4421 10.6176 23.4269 10.6441 23.4C10.6705 23.373 10.6854 23.3366 10.6856 23.2985V19.3255C10.6853 19.2875 10.6703 19.2512 10.6439 19.2243C10.6175 19.1974 10.5817 19.1822 10.5444 19.1819H10.5438Z" fill="var(--fill-0, #C9B382)"/>
</g>
</svg>
