<svg preserveAspectRatio="none" width="100%" height="100%" overflow="visible" style="display: block;" viewBox="0 0 13 13" fill="none" xmlns="http://www.w3.org/2000/svg">
<g id="rotate-cw">
<path id="Vector" d="M11.375 6.5C11.375 7.46418 11.0891 8.40671 10.5534 9.2084C10.0177 10.0101 9.25637 10.6349 8.36558 11.0039C7.47479 11.3729 6.49459 11.4694 5.54894 11.2813C4.60328 11.0932 3.73464 10.6289 3.05286 9.94714C2.37108 9.26536 1.90678 8.39672 1.71867 7.45106C1.53057 6.50541 1.62711 5.52521 1.99609 4.63442C2.36507 3.74363 2.98991 2.98226 3.7916 2.44659C4.59329 1.91091 5.53582 1.625 6.5 1.625C7.865 1.625 9.17042 2.16667 10.1508 3.10917L11.375 4.33333M8.66667 4.33333H11.375L11.375 1.625" stroke="var(--stroke-0, #C9B382)" stroke-linecap="round"/>
</g>
</svg>
