<svg preserveAspectRatio="none" width="100%" height="100%" overflow="visible" style="display: block;" viewBox="0 0 31.9922 31.9922" fill="none" xmlns="http://www.w3.org/2000/svg">
<g id="Container">
<path d="M0 15.9961C0 7.1617 7.1617 0 15.9961 0V0C24.8305 0 31.9922 7.1617 31.9922 15.9961V15.9961C31.9922 24.8305 24.8305 31.9922 15.9961 31.9922V31.9922C7.1617 31.9922 0 24.8305 0 15.9961V15.9961Z" fill="var(--fill-0, #F7F6F4)"/>
<path id="Vector" d="M15.3709 6.9961C14.6948 6.9961 14.1394 7.57629 14.1394 8.28264V8.41041C11.3325 9.00667 9.21712 11.6032 9.21712 14.7097V18.2448C9.21712 18.588 9.10481 18.9206 8.89942 19.189L8.43787 19.7917C8.14556 20.1734 7.98633 20.6475 7.98633 21.1369V22.1028C7.98633 22.6316 8.40172 23.0656 8.90787 23.0656H12.7601C13.1424 24.1986 14.1655 24.9781 15.3301 24.9958C16.5224 25.0143 17.5878 24.2307 17.9817 23.0656H21.8317C22.3379 23.0656 22.7533 22.6316 22.7533 22.1028V21.1369C22.7533 20.6475 22.594 20.1734 22.3017 19.7917L21.841 19.189C21.6356 18.9206 21.5225 18.5879 21.5225 18.2448V17.483C21.5225 17.2685 21.3633 17.1463 21.1625 17.1889C21.1602 17.1897 21.1587 17.1897 21.1564 17.1905C21.0194 17.2194 20.9071 17.3544 20.9071 17.4999V18.2448C20.9071 18.7342 21.0664 19.2083 21.3587 19.59L21.8218 20.1951C22.0272 20.4627 22.1379 20.7938 22.1379 21.1369V22.1029C22.1379 22.2845 22.0048 22.4227 21.8318 22.4227H8.9079C8.73405 22.4227 8.60174 22.2837 8.60174 22.1029V21.1369C8.60174 20.7938 8.71174 20.4635 8.91713 20.1951L9.38022 19.59C9.6733 19.2083 9.83253 18.7334 9.83253 18.2448V14.7097C9.83253 11.5106 12.3079 8.92471 15.3702 8.92471C15.6594 8.92471 15.9441 8.94802 16.2217 8.99221C16.2379 8.99623 16.254 8.99945 16.2702 9.00025C16.5879 9.05409 16.8956 9.13606 17.1925 9.24374C17.3602 9.30481 17.6025 9.26463 17.7464 9.15454C17.7471 9.15374 17.7479 9.15374 17.7479 9.15293C17.9187 9.02356 17.9125 8.8516 17.7171 8.76721C17.361 8.61292 16.9879 8.49319 16.6017 8.41121V8.28264C16.6017 7.57628 16.0471 6.9961 15.3709 6.9961ZM15.3709 7.63977C15.7148 7.63977 15.9863 7.92344 15.9863 8.28264V8.31398C15.784 8.29309 15.5779 8.28184 15.3702 8.28184C15.1625 8.28184 14.9571 8.29309 14.7548 8.31398V8.28264C14.7548 7.92344 15.0271 7.63977 15.3709 7.63977ZM20.2932 8.92632C18.2578 8.92632 16.6025 10.6548 16.6025 12.7811C16.6025 14.9074 18.2579 16.6391 20.2932 16.6391C22.3286 16.6391 23.9863 14.9074 23.9863 12.7811C23.9863 10.6548 22.3286 8.92632 20.2932 8.92632ZM20.2932 9.56678C21.9963 9.56678 23.3709 11.0028 23.3709 12.782C23.3709 14.5611 21.9963 15.9972 20.2932 15.9972C18.5902 15.9972 17.2179 14.5603 17.2179 12.782C17.2179 11.0028 18.5902 9.56678 20.2932 9.56678ZM20.2932 10.2089C20.2109 10.2097 20.1332 10.2434 20.0755 10.3045C20.0178 10.3647 19.9863 10.4467 19.9863 10.5327V12.4613H18.7548V12.4605C18.6732 12.4605 18.5948 12.4943 18.5371 12.5537C18.4794 12.614 18.4463 12.696 18.4463 12.7812C18.4455 12.8671 18.4778 12.9491 18.5363 13.0102C18.594 13.0705 18.6732 13.105 18.7548 13.1042H20.2932C20.3748 13.105 20.454 13.0705 20.5117 13.0102C20.5702 12.9491 20.6025 12.8671 20.6017 12.7812V10.5326C20.6025 10.4467 20.5702 10.3639 20.5117 10.3036C20.454 10.2425 20.3748 10.2089 20.2932 10.2089ZM11.3502 12.1399C11.2548 12.1463 11.1679 12.1985 11.114 12.2821L10.9256 12.5786C10.6133 13.0672 10.4486 13.6402 10.4486 14.2276V15.9947C10.4479 16.0799 10.4802 16.1618 10.5379 16.2221C10.5956 16.2832 10.674 16.3169 10.7556 16.3169C10.8371 16.3177 10.9163 16.284 10.974 16.2229C11.0325 16.1626 11.0648 16.0799 11.064 15.9947V14.2276C11.064 13.7671 11.194 13.3179 11.4386 12.9346L11.6271 12.6373C11.7202 12.4894 11.6809 12.2917 11.5409 12.1937C11.4848 12.1543 11.4179 12.1359 11.3502 12.1399ZM10.7563 16.6392C10.6748 16.6392 10.5963 16.6721 10.5379 16.7324C10.4802 16.7926 10.4479 16.8738 10.4471 16.9598V17.9257C10.4479 18.0109 10.4802 18.0921 10.5379 18.1523C10.5963 18.2126 10.6748 18.2463 10.7563 18.2455C10.9248 18.2447 11.0617 18.1025 11.0625 17.9257V16.9598C11.0617 16.783 10.9248 16.64 10.7563 16.6392ZM13.424 23.0654H17.3178C16.9609 23.8537 16.194 24.3656 15.3393 24.3528C14.507 24.3399 13.7701 23.8312 13.4232 23.0654H13.424Z" fill="var(--fill-0, #C9B382)"/>
</g>
</svg>
