<svg preserveAspectRatio="none" width="100%" height="100%" overflow="visible" style="display: block;" viewBox="0 0 31.9922 31.9922" fill="none" xmlns="http://www.w3.org/2000/svg">
<g id="Container">
<path d="M0 15.9961C0 7.1617 7.1617 0 15.9961 0V0C24.8305 0 31.9922 7.1617 31.9922 15.9961V15.9961C31.9922 24.8305 24.8305 31.9922 15.9961 31.9922V31.9922C7.1617 31.9922 0 24.8305 0 15.9961V15.9961Z" fill="var(--fill-0, #F7F6F4)"/>
<path id="Vector" fill-rule="evenodd" clip-rule="evenodd" d="M10.721 12.3148C10.6091 12.6971 10.2691 12.9758 9.86742 12.9758C9.37489 12.9758 8.97534 12.5562 8.97534 12.0407C8.97534 11.5244 9.37487 11.1056 9.86742 11.1056C10.2691 11.1056 10.6091 11.3835 10.721 11.7665H11.5702C11.7148 11.7665 11.8317 11.8891 11.8317 12.0407C11.8317 12.1914 11.7147 12.3148 11.5702 12.3148L10.721 12.3148ZM10.2364 12.0407C10.2364 11.8267 10.0715 11.6539 9.8674 11.6539C9.66398 11.6539 9.49836 11.8267 9.49836 12.0407C9.49836 12.2539 9.66399 12.4276 9.8674 12.4276C10.0715 12.4276 10.2364 12.2539 10.2364 12.0407ZM9.45914 16.7773C9.34727 17.1603 9.00801 17.4383 8.6063 17.4383C8.11378 17.4383 7.71422 17.0194 7.71422 16.5031C7.71422 15.9876 8.11376 15.568 8.6063 15.568C9.00803 15.568 9.34728 15.8467 9.45914 16.229H10.102C10.2466 16.229 10.3635 16.3523 10.3635 16.5031C10.3635 16.6546 10.2466 16.7772 10.102 16.7772L9.45914 16.7773ZM8.97532 16.5031C8.97532 16.2899 8.81041 16.1163 8.60628 16.1163C8.40287 16.1163 8.23724 16.2899 8.23724 16.5031C8.23724 16.7171 8.40287 16.89 8.60628 16.89C8.81042 16.89 8.97532 16.7171 8.97532 16.5031ZM21.3496 12.315H18.9109C18.7664 12.315 18.6494 12.1916 18.6494 12.0408C18.6494 11.8893 18.7664 11.7667 18.9109 11.7667H21.3496C21.4614 11.3837 21.8007 11.1057 22.2024 11.1057C22.6949 11.1057 23.0945 11.5245 23.0945 12.0408C23.0945 12.4612 22.8286 12.8176 22.4639 12.9348V13.7877L23.6764 15.0587C24.0134 14.8713 24.4413 14.9262 24.7254 15.2239C25.0733 15.5887 25.0733 16.1811 24.7254 16.5459C24.4413 16.8436 24.0134 16.8984 23.6764 16.7111L22.4639 17.9821V18.8349C22.8286 18.9522 23.0945 19.3086 23.0945 19.7289C23.0945 20.2452 22.695 20.6641 22.2024 20.6641C21.8007 20.6641 21.4614 20.3861 21.3496 20.0031H18.9109C18.7664 20.0031 18.6494 19.8805 18.6494 19.729C18.6494 19.5782 18.7664 19.4548 18.9109 19.4548H21.3496C21.436 19.1594 21.6583 18.9256 21.9409 18.835V17.8679C21.9409 17.7955 21.9685 17.7262 22.0172 17.6744L23.3059 16.3235C23.1679 16.0502 23.1679 15.7197 23.3059 15.4463L22.0172 14.0954C21.9685 14.0444 21.9409 13.9743 21.9409 13.902V12.9349C21.6583 12.8442 21.436 12.6104 21.3496 12.315ZM21.8334 12.0408C21.8334 12.2541 21.9983 12.4277 22.2024 12.4277C22.4058 12.4277 22.5715 12.2541 22.5715 12.0408C22.5715 11.8268 22.4058 11.654 22.2024 11.654C21.9983 11.654 21.8334 11.8268 21.8334 12.0408ZM23.8333 16.1583C23.9771 16.3098 24.2111 16.3098 24.3556 16.1583C24.4995 16.0075 24.4995 15.7623 24.3556 15.6115C24.2111 15.46 23.9771 15.46 23.8333 15.6115C23.6895 15.7623 23.6895 16.0075 23.8333 16.1583ZM21.8334 19.7289C21.8334 19.9428 21.9983 20.1157 22.2024 20.1157C22.4058 20.1157 22.5715 19.9428 22.5715 19.7289C22.5715 19.5156 22.4058 19.342 22.2024 19.342C21.9983 19.342 21.8334 19.5156 21.8334 19.7289ZM18.9618 10.268L17.9521 11.3265C17.8504 11.4331 17.6847 11.4331 17.5823 11.3265C17.4806 11.2191 17.4806 11.0455 17.5823 10.9381L18.5921 9.87963C18.4134 9.5263 18.4657 9.07777 18.7497 8.78003C19.0977 8.41527 19.6629 8.41527 20.0115 8.78003C20.3595 9.14555 20.3595 9.738 20.0115 10.1028C19.7275 10.4005 19.2989 10.4553 18.9618 10.268ZM19.1195 9.71516C19.2633 9.86594 19.4972 9.86594 19.6418 9.71516C19.7856 9.56438 19.7856 9.31919 19.6418 9.1684C19.4972 9.01686 19.2633 9.01686 19.1195 9.1684C18.9756 9.31917 18.9756 9.56437 19.1195 9.71516ZM13.8826 10.268C13.5455 10.4553 13.1169 10.4005 12.8336 10.1028C12.4849 9.73799 12.4849 9.14554 12.8336 8.78002C13.1815 8.41526 13.7467 8.41526 14.0947 8.78002C14.3787 9.07776 14.431 9.52628 14.2523 9.87962L14.7063 10.3563C14.808 10.4629 14.808 10.6366 14.7063 10.7439C14.6046 10.8513 14.439 10.8513 14.3366 10.7439L13.8826 10.268ZM13.7249 9.71516C13.8688 9.56438 13.8688 9.31919 13.7249 9.1684C13.5811 9.01686 13.3472 9.01686 13.2026 9.1684C13.0588 9.31917 13.0588 9.56437 13.2026 9.71516C13.3472 9.86594 13.5811 9.86594 13.7249 9.71516ZM18.5921 21.89L17.5824 20.8315C17.4807 20.7242 17.4807 20.5505 17.5824 20.4432C17.6848 20.3366 17.8504 20.3366 17.9521 20.4432L18.9619 21.5017C19.299 21.3143 19.7276 21.3692 20.0116 21.6669C20.3596 22.0317 20.3596 22.6241 20.0116 22.9896C19.6629 23.3544 19.0977 23.3544 18.7497 22.9896C18.4657 22.6919 18.4134 22.2434 18.5921 21.89ZM19.1195 22.0545C18.9757 22.2053 18.9757 22.4505 19.1195 22.6013C19.2633 22.7528 19.4973 22.7528 19.6418 22.6013C19.7857 22.4505 19.7857 22.2053 19.6418 22.0545C19.4973 21.9037 19.2633 21.9037 19.1195 22.0545ZM14.2523 21.89C14.431 22.2434 14.3787 22.6919 14.0947 22.9896C13.7467 23.3544 13.1815 23.3544 12.8336 22.9896C12.4849 22.6241 12.4849 22.0317 12.8336 21.6669C13.1169 21.3692 13.5455 21.3143 13.8826 21.5016L14.2901 21.0744C14.3925 20.9671 14.5581 20.9671 14.6598 21.0744C14.7623 21.1818 14.7623 21.3554 14.6598 21.4621L14.2523 21.89ZM13.7249 22.0545C13.5811 21.9037 13.3472 21.9037 13.2026 22.0545C13.0588 22.2053 13.0588 22.4505 13.2026 22.6013C13.3472 22.7528 13.5811 22.7528 13.7249 22.6013C13.8688 22.4505 13.8688 22.2053 13.7249 22.0545ZM16.1607 9.32522C15.7961 9.20795 15.5302 8.85156 15.5302 8.43122C15.5302 7.91493 15.9297 7.49609 16.4223 7.49609C16.9148 7.49609 17.3144 7.91491 17.3144 8.43122C17.3144 8.85156 17.0485 9.20796 16.6838 9.32522V10.632C16.6838 10.7835 16.5668 10.9061 16.4223 10.9061C16.2777 10.9061 16.1608 10.7835 16.1608 10.632L16.1607 9.32522ZM16.4223 8.81805C16.6257 8.81805 16.7913 8.64443 16.7913 8.4312C16.7913 8.21721 16.6257 8.04436 16.4223 8.04436C16.2189 8.04436 16.0532 8.21722 16.0532 8.4312C16.0532 8.64443 16.2189 8.81805 16.4223 8.81805ZM16.6838 22.4443C17.0484 22.5616 17.3143 22.9179 17.3143 23.3383C17.3143 23.8546 16.9148 24.2734 16.4222 24.2734C15.9297 24.2734 15.5302 23.8546 15.5302 23.3383C15.5302 22.9179 15.796 22.5615 16.1607 22.4443V21.1376C16.1607 20.986 16.2777 20.8634 16.4222 20.8634C16.5668 20.8634 16.6837 20.986 16.6837 21.1376L16.6838 22.4443ZM16.4223 22.9515C16.2188 22.9515 16.0532 23.1251 16.0532 23.3383C16.0532 23.5523 16.2189 23.7251 16.4223 23.7251C16.6257 23.7251 16.7913 23.5523 16.7913 23.3383C16.7913 23.1251 16.6257 22.9515 16.4223 22.9515ZM12.1065 20.3716L12.3375 20.6137C12.4392 20.7203 12.4392 20.894 12.3375 21.0013L9.39022 24.09C8.87372 24.6314 8.03613 24.6314 7.51899 24.09L7.3737 23.9377C6.8572 23.3963 6.8572 22.5175 7.3737 21.9762L10.3202 18.8875C10.4226 18.7801 10.5883 18.7801 10.6907 18.8875L10.9217 19.1289L11.5079 18.5144C10.3049 16.67 10.4844 14.1289 12.0455 12.4923C13.81 10.6426 16.6737 10.6426 18.4382 12.4923C20.202 14.3413 20.202 17.3439 18.4382 19.1928C16.8764 20.83 14.4529 21.0173 12.6934 19.7563L12.1065 20.3716ZM11.2907 19.5172L11.7367 19.9839L12.2757 19.4182C12.1973 19.3466 12.1202 19.2712 12.0454 19.1928C11.9706 19.1143 11.8994 19.0336 11.8304 18.9514L11.2907 19.5172ZM18.0683 12.8799C16.5079 11.2449 13.9755 11.2449 12.4152 12.8799C10.8555 14.5148 10.8555 17.1702 12.4152 18.8052C13.9756 20.4402 16.508 20.4402 18.0683 18.8052C19.628 17.1703 19.628 14.5149 18.0683 12.8799ZM18.4388 15.8421C18.4388 17.6925 17.0063 19.1941 15.2418 19.1941C13.4773 19.1941 12.0448 17.6925 12.0448 15.8421C12.0448 13.9924 13.4774 12.4908 15.2418 12.4908C17.0064 12.4908 18.4388 13.9924 18.4388 15.8421ZM17.9158 15.8421C17.9158 14.2947 16.7179 13.039 15.2417 13.039C13.7656 13.039 12.5677 14.2947 12.5677 15.8421C12.5677 17.3895 13.7656 18.6459 15.2417 18.6459C16.7179 18.6459 17.9158 17.3895 17.9158 15.8421ZM16.1229 14.4866C16.8363 14.4866 17.416 15.0943 17.416 15.8421C17.416 16.5906 16.8363 17.1983 16.1229 17.1983C15.4088 17.1983 14.8291 16.5906 14.8291 15.8421C14.8291 15.0943 15.4088 14.4866 16.1229 14.4866ZM16.1229 15.0349C15.6972 15.0349 15.3522 15.3966 15.3522 15.8421C15.3522 16.2883 15.6972 16.65 16.1229 16.65C16.5479 16.65 16.893 16.2883 16.893 15.8421C16.893 15.3966 16.5479 15.0349 16.1229 15.0349ZM15.78 17.7489C15.9122 17.8098 15.9718 17.9712 15.9137 18.1099C15.8556 18.2485 15.7009 18.3109 15.5686 18.25C14.5269 17.7679 13.6442 16.979 13.0253 15.9929C12.9672 15.9015 12.9672 15.7827 13.0253 15.6913C13.6355 14.7197 14.5022 13.9391 15.5249 13.4547C15.6564 13.3931 15.8119 13.454 15.8714 13.5918C15.9303 13.7296 15.8722 13.8926 15.7407 13.955C14.8617 14.3708 14.1091 15.0265 13.5598 15.8421C14.1177 16.6706 14.8842 17.3339 15.78 17.7489ZM7.88933 23.7023C8.2017 24.0298 8.70802 24.0298 9.0204 23.7023L11.7824 20.807L10.5053 19.4683L7.74405 22.3636C7.43095 22.691 7.43095 23.2225 7.74405 23.55L7.88933 23.7023ZM19.7631 13.7876C19.6273 13.7366 19.5561 13.579 19.6048 13.4373C19.6534 13.2942 19.8038 13.2203 19.9397 13.2713C21.1506 13.7267 22.1786 14.5857 22.873 15.6914C22.9304 15.7827 22.9304 15.9015 22.873 15.9929C22.1807 17.0956 21.1585 17.9515 19.9542 18.4085C19.8176 18.4595 19.6679 18.3856 19.6186 18.2432C19.5699 18.1008 19.6403 17.9439 19.7762 17.8922C20.8186 17.4977 21.7107 16.7743 22.3376 15.8421C21.7077 14.907 20.8114 14.1813 19.7631 13.7876Z" fill="var(--fill-0, #C9B382)"/>
</g>
</svg>
