<svg preserveAspectRatio="none" width="100%" height="100%" overflow="visible" style="display: block;" viewBox="0 0 31.9922 31.9922" fill="none" xmlns="http://www.w3.org/2000/svg">
<g id="Container">
<path d="M0 15.9961C0 7.1617 7.1617 0 15.9961 0V0C24.8305 0 31.9922 7.1617 31.9922 15.9961V15.9961C31.9922 24.8305 24.8305 31.9922 15.9961 31.9922V31.9922C7.1617 31.9922 0 24.8305 0 15.9961V15.9961Z" fill="var(--fill-0, #F7F6F4)"/>
<path id="Vector" d="M15.3561 19.2204L16.2022 20.0666C16.294 20.1624 16.4047 20.2381 16.5273 20.2888C16.6498 20.3396 16.7816 20.3643 16.9143 20.3614H17.9154V21.2076C17.9154 21.5122 18.0364 21.8043 18.2518 22.0198C18.4672 22.2352 18.7593 22.3562 19.0639 22.3562H19.91V23.3555C19.9108 23.619 20.0145 23.8718 20.199 24.06L20.8632 24.7243C21.0394 24.8989 21.2775 24.9966 21.5255 24.9961H24.1632C24.3814 24.9956 24.5904 24.9087 24.7447 24.7544C24.8989 24.6002 24.9858 24.3911 24.9863 24.1729V21.5349C24.9867 21.4112 24.9625 21.2886 24.9152 21.1742C24.8679 21.0599 24.7984 20.956 24.7107 20.8687L19.2094 15.3668C19.6812 14.022 19.6822 12.5568 19.2123 11.2112C18.7424 9.86575 17.8295 8.71977 16.6231 7.96112C15.4168 7.20246 13.9885 6.87613 12.5724 7.03559C11.1563 7.19505 9.83633 7.83085 8.82884 8.8388C7.821 9.8464 7.18527 11.1665 7.02582 12.5827C6.86638 13.999 7.19268 15.4274 7.95125 16.6339C8.70982 17.8404 9.85568 18.7535 11.201 19.2234C12.5464 19.6933 14.0115 19.6923 15.3561 19.2204ZM9.64236 9.64858C10.4853 8.8044 11.5957 8.27978 12.7831 8.16467C13.9705 8.04956 15.1609 8.35112 16.1503 9.01766C17.1397 9.68421 17.8665 10.6742 18.206 11.8179C18.5455 12.9617 18.4766 14.1879 18.0111 15.2864C17.9665 15.3917 17.9544 15.5078 17.9762 15.62C17.998 15.7322 18.0528 15.8354 18.1336 15.9162L23.8359 21.6211V23.8475H21.6097L21.0489 23.2866V21.9331C21.0489 21.7371 20.971 21.5492 20.8325 21.4106C20.6939 21.272 20.506 21.1942 20.31 21.1942H19.0639V19.9517C19.0639 19.7557 18.986 19.5678 18.8475 19.4292C18.7089 19.2906 18.521 19.2128 18.325 19.2128H16.9736L15.9055 18.1446C15.8247 18.0638 15.7215 18.009 15.6093 17.9871C15.4971 17.9653 15.381 17.9775 15.2758 18.022C14.1775 18.4866 12.9519 18.5548 11.8089 18.2149C10.6659 17.875 9.6766 17.1482 9.01055 16.159C8.34451 15.1697 8.04313 13.9797 8.15804 12.7926C8.27296 11.6056 8.79702 10.4955 9.64045 9.65241L9.64236 9.64858ZM12.0466 14.1646C12.463 14.1646 12.8701 14.0411 13.2164 13.8097C13.5626 13.5783 13.8325 13.2494 13.9919 12.8646C14.1512 12.4798 14.1929 12.0564 14.1117 11.648C14.0304 11.2395 13.8299 10.8642 13.5354 10.5697C13.241 10.2752 12.8658 10.0747 12.4573 9.99343C12.0489 9.91217 11.6255 9.95388 11.2408 10.1133C10.856 10.2726 10.5272 10.5426 10.2958 10.8888C10.0645 11.2351 9.94097 11.6423 9.94097 12.0588C9.94097 12.6173 10.1628 13.1529 10.5577 13.5478C10.9526 13.9427 11.4881 14.1646 12.0466 14.1646ZM12.0466 11.1169C12.2358 11.1169 12.4209 11.173 12.5783 11.2782C12.7357 11.3834 12.8583 11.5329 12.9308 11.7078C13.0032 11.8827 13.0222 12.0752 12.9852 12.2608C12.9483 12.4465 12.8572 12.6171 12.7233 12.7509C12.5895 12.8848 12.4189 12.9759 12.2333 13.0129C12.0476 13.0498 11.8552 13.0309 11.6803 12.9584C11.5054 12.886 11.3559 12.7633 11.2508 12.6059C11.1456 12.4485 11.0895 12.2634 11.0895 12.0741C11.0892 11.9482 11.1138 11.8236 11.1618 11.7072C11.2098 11.5908 11.2802 11.4851 11.3691 11.396C11.458 11.3069 11.5636 11.2363 11.6799 11.188C11.7961 11.1398 11.9207 11.115 12.0466 11.115V11.1169Z" fill="var(--fill-0, #C9B382)"/>
</g>
</svg>
