<svg preserveAspectRatio="none" width="100%" height="100%" overflow="visible" style="display: block;" viewBox="0 0 16.0445 16.0681" fill="none" xmlns="http://www.w3.org/2000/svg">
<g id="&#208;&#161;&#208;&#187;&#208;&#190;&#208;&#185; 4">
<path id="Vector" d="M4.57777 10.1353H0.820869V5.91048H5.46909C5.58019 5.91048 5.68675 5.86635 5.76531 5.78779C5.84387 5.70922 5.88801 5.60267 5.88801 5.49157V0.843344H10.1129V3.80252C10.1236 3.90674 10.1726 4.00328 10.2504 4.07347C10.3282 4.14366 10.4292 4.18251 10.534 4.18251C10.6388 4.18251 10.7398 4.14366 10.8176 4.07347C10.8954 4.00328 10.9444 3.90674 10.9552 3.80252V0.446708C10.9588 0.38911 10.9506 0.331371 10.9309 0.277113C10.9112 0.222855 10.8806 0.173248 10.8408 0.131404C10.8011 0.0895602 10.7531 0.0563818 10.6999 0.03395C10.6467 0.0115182 10.5895 0.000317044 10.5318 0.00104903H5.46909C5.40955 -0.00289011 5.34985 0.00593745 5.29399 0.0269407C5.23814 0.0479439 5.18741 0.080638 5.14522 0.122834C5.10302 0.16503 5.07033 0.215754 5.04932 0.27161C5.02832 0.327465 5.01949 0.387164 5.02343 0.446708V5.06819H0.424232C0.366521 5.06746 0.309281 5.07866 0.256103 5.10109C0.202924 5.12352 0.154955 5.1567 0.115203 5.19854C0.0754513 5.24039 0.0447748 5.29 0.0250978 5.34425C0.00542082 5.39851 -0.00283219 5.45625 0.000856449 5.51385V10.5542C0.000124459 10.612 0.0113256 10.6692 0.0337574 10.7224C0.0561892 10.7756 0.0893676 10.8235 0.131212 10.8633C0.173056 10.903 0.222662 10.9337 0.276921 10.9534C0.331179 10.9731 0.388917 10.9813 0.446515 10.9776H4.62234C4.68128 10.9837 4.74085 10.9773 4.79718 10.9589C4.85351 10.9405 4.90534 10.9105 4.94934 10.8708C4.99333 10.8311 5.02851 10.7826 5.05258 10.7285C5.07666 10.6743 5.08909 10.6157 5.08909 10.5565C5.08909 10.4972 5.07666 10.4386 5.05258 10.3845C5.02851 10.3303 4.99333 10.2818 4.94934 10.2421C4.90534 10.2024 4.85351 10.1724 4.79718 10.154C4.74085 10.1356 4.68128 10.1293 4.62234 10.1353H4.57777Z" fill="var(--fill-0, #C9B382)"/>
<path id="Vector_2" d="M15.5987 5.06828H11.3784C11.3194 5.06221 11.2598 5.06858 11.2035 5.08698C11.1472 5.10538 11.0953 5.1354 11.0514 5.17509C11.0074 5.21479 10.9722 5.26328 10.9481 5.31743C10.924 5.37157 10.9116 5.43017 10.9116 5.48943C10.9116 5.54869 10.924 5.60728 10.9481 5.66143C10.9722 5.71558 11.0074 5.76407 11.0514 5.80376C11.0953 5.84346 11.1472 5.87348 11.2035 5.89188C11.2598 5.91028 11.3194 5.91665 11.3784 5.91058H15.1798V10.1354H10.5316C10.4766 10.1354 10.4221 10.1463 10.3713 10.1673C10.3205 10.1884 10.2743 10.2192 10.2354 10.2581C10.1965 10.297 10.1656 10.3432 10.1446 10.394C10.1235 10.4449 10.1127 10.4993 10.1127 10.5543V15.2026H5.88784V12.2434C5.8771 12.1392 5.8281 12.0426 5.75031 11.9724C5.67252 11.9022 5.57146 11.8634 5.46669 11.8634C5.36191 11.8634 5.26086 11.9022 5.18307 11.9724C5.10528 12.0426 5.05628 12.1392 5.04554 12.2434V15.6215C5.0416 15.681 5.05043 15.7407 5.07143 15.7966C5.09244 15.8524 5.12513 15.9032 5.16733 15.9454C5.20952 15.9876 5.26025 16.0202 5.3161 16.0412C5.37196 16.0623 5.43166 16.0711 5.4912 16.0671H10.5316C10.5893 16.0679 10.6466 16.0567 10.6997 16.0342C10.7529 16.0118 10.8009 15.9786 10.8406 15.9368C10.8804 15.8949 10.9111 15.8453 10.9307 15.7911C10.9504 15.7368 10.9587 15.6791 10.955 15.6215V10.9777H15.5987C15.6563 10.9814 15.7141 10.9732 15.7683 10.9535C15.8226 10.9338 15.8722 10.9031 15.914 10.8634C15.9559 10.8236 15.9891 10.7756 16.0115 10.7225C16.0339 10.6693 16.0451 10.6121 16.0444 10.5543V5.49166C16.0451 5.43395 16.0339 5.37671 16.0115 5.32353C15.9891 5.27035 15.9559 5.22238 15.914 5.18263C15.8722 5.14288 15.8226 5.1122 15.7683 5.09252C15.7141 5.07285 15.6563 5.06459 15.5987 5.06828Z" fill="var(--fill-0, #C9B382)"/>
</g>
</svg>
