<svg preserveAspectRatio="none" width="100%" height="100%" overflow="visible" style="display: block;" viewBox="0 0 31.9922 31.9922" fill="none" xmlns="http://www.w3.org/2000/svg">
<g id="Container">
<path d="M0 15.9961C0 7.1617 7.1617 0 15.9961 0V0C24.8305 0 31.9922 7.1617 31.9922 15.9961V15.9961C31.9922 24.8305 24.8305 31.9922 15.9961 31.9922V31.9922C7.1617 31.9922 0 24.8305 0 15.9961V15.9961Z" fill="var(--fill-0, #F7F6F4)"/>
<path id="Vector" d="M9.87836 6.99609C9.72908 6.99609 9.5976 7.09561 9.5535 7.241C9.5535 7.241 9.44662 7.59841 9.27019 8.02764C9.09461 8.45774 8.83252 8.95534 8.61961 9.17256C8.4067 9.38977 7.91813 9.65717 7.49741 9.83717C7.0767 10.0172 6.72638 10.1262 6.72638 10.1262C6.58388 10.1703 6.48633 10.3053 6.48633 10.4568C6.48633 10.6091 6.58387 10.7432 6.72638 10.7882C6.72638 10.7882 7.0767 10.8973 7.49741 11.0773C7.91813 11.2573 8.4067 11.5238 8.61961 11.741C8.83252 11.9582 9.09376 12.4567 9.27019 12.8868C9.44662 13.316 9.5535 13.6734 9.5535 13.6734C9.5976 13.8188 9.72908 13.9175 9.87752 13.9175C10.0268 13.9175 10.1583 13.8188 10.2024 13.6734C10.2024 13.6734 10.3093 13.316 10.4857 12.8868C10.6613 12.4567 10.9234 11.9582 11.1363 11.741C11.3492 11.5238 11.8378 11.2564 12.2585 11.0764C12.6792 10.8973 13.0295 10.7882 13.0295 10.7882C13.172 10.7432 13.2696 10.6091 13.2696 10.4568C13.2696 10.3054 13.172 10.1703 13.0295 10.1262C13.0295 10.1262 12.6792 10.0172 12.2585 9.83717C11.8378 9.65717 11.3492 9.38977 11.1363 9.17256C10.9234 8.95534 10.6613 8.45774 10.4848 8.02764C10.3093 7.59841 10.2024 7.241 10.2024 7.241C10.1583 7.09562 10.0268 6.99609 9.87836 6.99609ZM9.87667 8.32446C10.0658 8.78139 10.3067 9.30754 10.6553 9.66322C11.0039 10.0198 11.5197 10.2655 11.9684 10.4576C11.5205 10.6506 11.0039 10.8947 10.6553 11.2503C10.3067 11.6069 10.0658 12.1322 9.87667 12.5891C9.68836 12.1322 9.44916 11.606 9.10055 11.2503C8.75193 10.8946 8.23622 10.6506 7.78836 10.4576C8.23622 10.2655 8.75108 10.0197 9.10055 9.66322C9.44918 9.30754 9.68836 8.78139 9.87667 8.32446ZM19.3775 8.38244C19.2308 8.38244 19.0841 8.47331 19.0459 8.65591C19.0459 8.65591 18.8983 9.39842 18.6175 10.2768C18.3376 11.1551 17.9008 12.165 17.4402 12.6351C16.9796 13.1058 15.9898 13.5506 15.1287 13.8371C14.2686 14.1235 13.5434 14.2706 13.5434 14.2706C13.177 14.3433 13.177 14.8773 13.5434 14.95C13.5434 14.95 14.2686 15.1014 15.1287 15.3879C15.9897 15.6743 16.9795 16.1156 17.4402 16.5864C17.9008 17.0563 18.3368 18.0671 18.6175 18.9454C18.8983 19.8237 19.0459 20.5654 19.0459 20.5654C19.1222 20.9305 19.6329 20.9305 19.7092 20.5654C19.7092 20.5654 19.8576 19.8237 20.1376 18.9454C20.4183 18.067 20.8535 17.0562 21.314 16.5864C21.7746 16.1165 22.7653 15.6743 23.6262 15.3879C24.4871 15.1014 25.2115 14.95 25.2115 14.95C25.5779 14.8773 25.5779 14.3433 25.2115 14.2706C25.2115 14.2706 24.4871 14.1226 23.6262 13.8362C22.7661 13.5506 21.7754 13.1058 21.3147 12.6351C20.8541 12.1651 20.4181 11.1552 20.1374 10.2768C19.8575 9.39842 19.709 8.65591 19.709 8.65591C19.6708 8.47331 19.5243 8.38244 19.3775 8.38244ZM19.3792 10.121C19.4361 10.3278 19.4183 10.2551 19.4937 10.4914C19.7872 11.4113 20.1995 12.4792 20.8339 13.1266C21.4684 13.774 22.5151 14.1936 23.416 14.4939C23.6484 14.5709 23.5771 14.5536 23.7807 14.6116C23.578 14.6696 23.6484 14.6523 23.416 14.7293C22.5143 15.0296 21.4676 15.451 20.8339 16.0983C20.1995 16.7457 19.7881 17.811 19.4937 18.7309C19.4183 18.968 19.4361 18.8979 19.3792 19.1047C19.3224 18.8979 19.3394 18.968 19.2639 18.7309C18.9704 17.811 18.5556 16.7457 17.9212 16.0983C17.2875 15.451 16.24 15.0287 15.3391 14.7284C15.1067 14.6514 15.1805 14.6696 14.9769 14.6116C15.1805 14.5528 15.1067 14.5709 15.3391 14.4939C16.2399 14.1936 17.2875 13.7739 17.9212 13.1266C18.5556 12.4793 18.9695 11.4114 19.2639 10.4914C19.3394 10.2543 19.3224 10.3278 19.3792 10.121ZM13.2712 18.0747C13.1228 18.0747 12.9913 18.1733 12.9472 18.3187C12.9472 18.3187 12.8378 18.6761 12.6614 19.1054C12.4849 19.5346 12.2254 20.0331 12.0125 20.2503C11.7996 20.4675 11.3119 20.7323 10.8903 20.9123C10.4696 21.0923 10.1167 21.2039 10.1167 21.2039H10.1176C9.97507 21.249 9.87752 21.3831 9.87752 21.5354C9.87752 21.6877 9.97506 21.8218 10.1176 21.866C10.1176 21.866 10.4704 21.975 10.8911 22.155C11.3119 22.335 11.8004 22.6024 12.0133 22.8196C12.2262 23.0368 12.4858 23.5344 12.6622 23.9645C12.8387 24.3938 12.9481 24.7512 12.9481 24.7512H12.9472C12.9913 24.8966 13.1228 24.9961 13.2721 24.9961C13.4214 24.9961 13.5529 24.8966 13.5961 24.7512C13.5961 24.7512 13.703 24.3938 13.8794 23.9645C14.0558 23.5353 14.3154 23.0368 14.5283 22.8196C14.7412 22.6024 15.2289 22.335 15.6505 22.155C16.0712 21.975 16.4241 21.866 16.4241 21.866C16.5666 21.8218 16.6633 21.6877 16.6633 21.5354C16.6633 21.3831 16.5666 21.2489 16.4241 21.2039C16.4241 21.2039 16.0712 21.0923 15.6505 20.9123C15.2289 20.7332 14.7412 20.4684 14.5283 20.2512C14.3154 20.0339 14.0558 19.5355 13.8794 19.1062C13.703 18.6761 13.5961 18.3187 13.5961 18.3187C13.5529 18.1734 13.4205 18.0738 13.2712 18.0747ZM13.2704 19.4057C13.4587 19.8626 13.7013 20.387 14.0499 20.7427C14.3977 21.0975 14.9117 21.3415 15.3595 21.5345C14.9117 21.7266 14.3985 21.9741 14.0499 22.3298C13.7021 22.6846 13.4595 23.2099 13.2704 23.6668C13.0812 23.209 12.842 22.6837 12.4943 22.3289C12.1465 21.9732 11.6291 21.7257 11.1821 21.5336C11.6299 21.3415 12.1465 21.0966 12.4951 20.7418C12.8429 20.387 13.0821 19.8617 13.2712 19.4048L13.2704 19.4057Z" fill="var(--fill-0, #C9B382)"/>
</g>
</svg>
