<svg preserveAspectRatio="none" width="100%" height="100%" overflow="visible" style="display: block;" viewBox="0 0 31.9922 31.9922" fill="none" xmlns="http://www.w3.org/2000/svg">
<g id="Container">
<path d="M0 15.9961C0 7.1617 7.1617 0 15.9961 0V0C24.8305 0 31.9922 7.1617 31.9922 15.9961V15.9961C31.9922 24.8305 24.8305 31.9922 15.9961 31.9922V31.9922C7.1617 31.9922 0 24.8305 0 15.9961V15.9961Z" fill="var(--fill-0, #F7F6F4)"/>
<path id="Vector" fill-rule="evenodd" clip-rule="evenodd" d="M9.47793 10.4117C9.69915 10.4119 9.91716 10.4652 10.1139 10.5672C10.3107 10.6692 10.4805 10.817 10.6094 10.9983C10.7383 11.1797 10.8225 11.3893 10.855 11.61C10.8876 11.8307 10.8676 12.056 10.7967 12.2674L12.7407 13.2842C12.7831 13.2256 12.8299 13.1703 12.8807 13.119C13.01 12.9886 13.1635 12.8851 13.3324 12.8146C13.5013 12.744 13.6823 12.7077 13.8651 12.7077C14.048 12.7077 14.229 12.744 14.3979 12.8146C14.5668 12.8851 14.7203 12.9886 14.8495 13.119C14.8695 13.1391 14.8873 13.1593 14.9055 13.1795L16.9835 11.8208C16.838 11.495 16.8211 11.1256 16.9362 10.7877C17.0513 10.4498 17.2898 10.1688 17.6031 10.0021C17.9164 9.83528 18.2809 9.79521 18.6225 9.89002C18.9641 9.98482 19.257 10.2074 19.4415 10.5123L21.2893 9.73376C21.2049 9.3913 21.2519 9.02934 21.4208 8.7203C21.5897 8.41126 21.8681 8.17794 22.2003 8.06704C22.5324 7.95613 22.8939 7.97582 23.2122 8.12216C23.5306 8.2685 23.7825 8.5307 23.9174 8.85628C24.0523 9.18187 24.0603 9.54683 23.9399 9.87814C23.8194 10.2094 23.5794 10.4826 23.2677 10.6431C22.9561 10.8035 22.5959 10.8394 22.2591 10.7434C21.9224 10.6475 21.6341 10.4269 21.4517 10.1257L19.6041 10.9043C19.6773 11.202 19.6518 11.5158 19.5314 11.7976C19.4111 12.0794 19.2025 12.3136 18.9377 12.4646C18.6729 12.6155 18.3663 12.6749 18.0649 12.6335C17.7634 12.5921 17.4837 12.4523 17.2685 12.2355C17.2485 12.2153 17.2305 12.1952 17.2125 12.175L15.1349 13.5337C15.2281 13.7423 15.2692 13.9706 15.2549 14.1989C15.2406 14.4272 15.1711 14.6486 15.0526 14.8436C14.9341 15.0387 14.7702 15.2016 14.575 15.3182C14.3799 15.4348 14.1594 15.5015 13.9329 15.5126C13.7063 15.5236 13.4805 15.4787 13.2751 15.3817C13.0697 15.2847 12.8908 15.1385 12.7542 14.9559C12.6176 14.7733 12.5273 14.5598 12.4911 14.334C12.4549 14.1082 12.474 13.8768 12.5467 13.6601L10.6027 12.6442C10.5603 12.7028 10.5135 12.7581 10.4627 12.8096C10.3008 12.9727 10.1015 13.0931 9.88248 13.1601C9.66343 13.227 9.43139 13.2385 9.20691 13.1934C8.98243 13.1483 8.77243 13.0481 8.59552 12.9016C8.41861 12.7552 8.28024 12.567 8.19266 12.3537C8.10509 12.1404 8.07101 11.9087 8.09345 11.6789C8.11589 11.4492 8.19415 11.2286 8.32131 11.0367C8.44846 10.8447 8.62059 10.6874 8.82244 10.5785C9.02429 10.4697 9.24964 10.4127 9.47853 10.4127L9.47793 10.4117ZM10.5893 15.036H8.36633V22.7976H10.5893V15.036ZM14.9769 16.9118H12.7541V22.7976H14.9769V16.9118ZM19.3645 14.5668H17.1417V22.7976H19.3645V14.5668ZM23.7523 13.0556H21.5295V22.798H23.7523V13.0556ZM7.19733 23.9961C7.14137 23.9961 7.0877 23.9737 7.04813 23.9338C7.00856 23.8939 6.98633 23.8397 6.98633 23.7833C6.98633 23.7269 7.00856 23.6727 7.04813 23.6328C7.0877 23.5929 7.14137 23.5705 7.19733 23.5705H24.7753C24.8313 23.5705 24.885 23.5929 24.9245 23.6328C24.9641 23.6727 24.9863 23.7269 24.9863 23.7833C24.9863 23.8397 24.9641 23.8939 24.9245 23.9338C24.885 23.9737 24.8313 23.9961 24.7753 23.9961H7.19733Z" fill="var(--fill-0, #C9B382)"/>
</g>
</svg>
