<svg preserveAspectRatio="none" width="100%" height="100%" overflow="visible" style="display: block;" viewBox="0 0 31.9922 31.9922" fill="none" xmlns="http://www.w3.org/2000/svg">
<g id="Container">
<path d="M0 15.9961C0 7.1617 7.1617 0 15.9961 0V0C24.8305 0 31.9922 7.1617 31.9922 15.9961V15.9961C31.9922 24.8305 24.8305 31.9922 15.9961 31.9922V31.9922C7.1617 31.9922 0 24.8305 0 15.9961V15.9961Z" fill="var(--fill-0, #F7F6F4)"/>
<path id="Vector" d="M15.9863 6.99609C11.0237 6.99609 6.98633 11.0335 6.98633 15.9961C6.98633 20.9587 11.0237 24.9961 15.9863 24.9961C20.9489 24.9961 24.9863 20.9587 24.9863 15.9961C24.9863 11.0335 20.9489 6.99609 15.9863 6.99609ZM15.9863 23.7109C11.7329 23.7109 8.27153 20.2495 8.27153 15.9961C8.27153 11.7427 11.7329 8.28129 15.9863 8.28129C20.2397 8.28129 23.7011 11.7427 23.7011 15.9961C23.7011 20.2495 20.2397 23.7109 15.9863 23.7109ZM20.0831 12.7831C20.3423 13.0261 20.3567 13.4329 20.1137 13.6921L14.9927 19.1785C14.8703 19.3099 14.6993 19.3837 14.5229 19.3837C14.5193 19.3837 14.5139 19.3837 14.5085 19.3837C14.3267 19.3801 14.1539 19.2973 14.0333 19.1587L11.8409 16.5973C11.6105 16.3273 11.6411 15.9223 11.9111 15.6901C12.1811 15.4597 12.5861 15.4903 12.8183 15.7603L14.5445 17.7745L19.1741 12.8137C19.4171 12.5545 19.8221 12.5401 20.0831 12.7831Z" fill="var(--fill-0, #C9B382)"/>
</g>
</svg>
