<svg preserveAspectRatio="none" width="100%" height="100%" overflow="visible" style="display: block;" viewBox="0 0 17.0293 17.0293" fill="none" xmlns="http://www.w3.org/2000/svg">
<g id="Group 1">
<path id="Vector" d="M1.13529 8.51465C1.13529 4.43914 4.43914 1.13529 8.51465 1.13529C8.82816 1.13529 9.08229 0.881144 9.08229 0.567643C9.08229 0.254142 8.82816 1.35679e-09 8.51465 1.35679e-09C3.81215 1.35679e-09 0 3.81215 0 8.51465C0 13.2171 3.81215 17.0293 8.51465 17.0293C13.2171 17.0293 17.0293 13.2171 17.0293 8.51465C17.0293 8.20114 16.7752 7.94701 16.4617 7.94701C16.1481 7.94701 15.894 8.20114 15.894 8.51465C15.894 12.5902 12.5902 15.894 8.51465 15.894C4.43914 15.894 1.13529 12.5902 1.13529 8.51465Z" fill="var(--fill-0, #C9B382)"/>
<path id="Vector_2" d="M5.10858 8.51444C5.10858 6.63345 6.63344 5.10859 8.51444 5.10859C8.82795 5.10859 9.08209 4.85445 9.08209 4.54094C9.08209 4.22743 8.82795 3.9733 8.51444 3.9733C6.00643 3.9733 3.9733 6.00643 3.9733 8.51444C3.9733 11.0225 6.00643 13.0556 8.51444 13.0556C11.0225 13.0556 13.0556 11.0225 13.0556 8.51444C13.0556 8.20094 12.8015 7.9468 12.4879 7.9468C12.1744 7.9468 11.9203 8.20094 11.9203 8.51444C11.9203 10.3954 10.3954 11.9203 8.51444 11.9203C6.63344 11.9203 5.10858 10.3954 5.10858 8.51444Z" fill="var(--fill-0, #C9B382)"/>
<path id="Vector_3" d="M11.5278 2.27356C11.4153 2.38606 11.3551 2.54063 11.3621 2.69957L11.4516 4.75807L8.39687 7.81276C8.17521 8.03443 8.17521 8.39383 8.39687 8.61552C8.61856 8.83719 8.97797 8.83719 9.19966 8.61552L12.2543 5.56083L14.3128 5.65035C14.4718 5.65725 14.6264 5.59714 14.7389 5.48463L16.8461 3.37734C17.0053 3.21817 17.0554 2.97999 16.9738 2.77019C16.8922 2.56039 16.6943 2.41865 16.4694 2.40885L14.6813 2.33111L14.6035 0.543002C14.5938 0.318107 14.452 0.120238 14.2422 0.038631C14.0324 -0.0429763 13.7942 0.00709836 13.6351 0.166274L11.5278 2.27356Z" fill="var(--fill-0, #C9B382)"/>
</g>
</svg>
