<svg preserveAspectRatio="none" width="100%" height="100%" overflow="visible" style="display: block;" viewBox="0 0 31.9922 31.9922" fill="none" xmlns="http://www.w3.org/2000/svg">
<g id="Container">
<path d="M0 15.9961C0 7.1617 7.1617 0 15.9961 0V0C24.8305 0 31.9922 7.1617 31.9922 15.9961V15.9961C31.9922 24.8305 24.8305 31.9922 15.9961 31.9922V31.9922C7.1617 31.9922 0 24.8305 0 15.9961V15.9961Z" fill="var(--fill-0, #F7F6F4)"/>
<path id="Vector" d="M24.3934 15.7362L19.757 10.1363C19.6838 10.0486 19.5751 9.99609 19.4636 9.99609H15.9862C15.8355 9.99609 15.6965 10.0883 15.6349 10.2278C15.5733 10.3681 15.5921 10.5361 15.6928 10.656L20.1127 15.9956L15.6928 21.3351C15.5965 21.4551 15.5733 21.6193 15.6349 21.7633C15.6965 21.9073 15.8355 21.9951 15.9862 21.9951H19.4636C19.5759 21.9951 19.6838 21.9433 19.757 21.8548L24.3934 16.255C24.5173 16.1072 24.5173 15.883 24.3934 15.7353V15.7362ZM19.2861 21.1959H16.8251L20.9131 16.2561C21.037 16.1084 21.037 15.8841 20.9131 15.7364L16.8251 10.7966H19.2861L23.59 15.996L19.2861 21.1953V21.1959ZM14.441 21.5964C14.441 21.8161 14.2671 21.9961 14.0549 21.9961H11.3505C11.1998 21.9961 11.0607 21.9039 10.9992 21.7644C10.9376 21.6241 10.9564 21.4561 11.0571 21.3361L15.477 15.9966L11.0571 10.6571C10.9608 10.5371 10.9376 10.3728 10.9992 10.2289C11.0607 10.0886 11.1998 9.99712 11.3505 9.99712H14.0549C14.2671 9.99712 14.441 10.1771 14.441 10.3968C14.441 10.6166 14.2671 10.7966 14.0549 10.7966H12.1888L16.2768 15.7364C16.4007 15.8841 16.4007 16.1083 16.2768 16.2561L12.1888 21.1959H14.0549C14.2671 21.1959 14.441 21.3759 14.441 21.5956V21.5964ZM9.80454 10.3966C9.80454 10.6164 9.63067 10.7964 9.41841 10.7964L7.87245 10.7971C7.6602 10.7971 7.48633 10.6171 7.48633 10.3974C7.48633 10.1777 7.6602 9.99768 7.87245 9.99768H9.41769C9.62995 9.99768 9.80381 10.1777 9.80381 10.3974L9.80454 10.3966ZM9.80454 21.5964C9.80454 21.8161 9.63067 21.9961 9.41841 21.9961H7.87245C7.6602 21.9961 7.48633 21.8161 7.48633 21.5964C7.48633 21.3766 7.6602 21.1967 7.87245 21.1967H9.41769C9.62995 21.1967 9.80381 21.3766 9.80381 21.5964H9.80454Z" fill="var(--fill-0, #C9B382)"/>
</g>
</svg>
